<?xml version="1.0" standalone="no"?>
<!DOCTYPE svg PUBLIC "-//W3C//DTD SVG 20010904//EN"
 "http://www.w3.org/TR/2001/REC-SVG-20010904/DTD/svg10.dtd">
<svg version="1.0" xmlns="http://www.w3.org/2000/svg"
 width="2000.000000pt" height="2000.000000pt" viewBox="0 0 2000.000000 2000.000000"
 preserveAspectRatio="xMidYMid meet">

<g transform="translate(0.000000,2000.000000) scale(0.100000,-0.100000)"
fill="#222222" stroke="none">
<path d="M1635 18326 c-896 -920 -1631 -1680 -1633 -1688 -1 -8 6 -22 16 -31
18 -16 87 53 1666 1674 1079 1107 1646 1695 1642 1705 -3 8 -18 14 -33 14 -24
0 -270 -249 -1658 -1674z"/>
<path d="M5822 19147 c-468 -468 -852 -857 -852 -862 0 -6 2634 -2644 5853
-5863 l5852 -5852 869 869 869 869 -21 28 c-11 16 -381 389 -821 829 l-801
800 800 800 800 800 815 -815 816 -815 -3 48 -3 47 -805 805 -805 805 808 808
807 807 0 80 0 80 -782 782 -783 783 783 783 782 782 0 90 0 90 -804 804 -804
804 801 808 c811 818 849 859 784 859 -19 0 -553 -532 -2458 -2447 -1338
-1347 -2822 -2837 -3296 -3313 l-862 -865 -806 805 -805 805 2495 2495 c1969
1969 2493 2498 2483 2508 -39 39 33 108 -2548 -2473 l-2485 -2485 -810 810
-810 810 825 825 825 825 -850 850 c-673 673 -855 850 -875 850 -20 0 -194
-169 -837 -812 l-813 -813 -813 813 c-643 643 -817 812 -837 812 -20 0 -202
-177 -878 -853z m3358 -42 l825 825 815 -815 815 -815 -825 -825 -825 -825
2530 -2530 2530 -2530 825 825 825 825 813 -813 812 -812 -820 -820 c-451
-451 -820 -824 -820 -830 0 -5 370 -380 822 -832 l823 -823 -823 -823 -822
-822 -5810 5810 -5810 5810 822 822 823 823 825 -825 825 -825 825 825z
m10582 -2700 c-125 -126 -496 -500 -824 -830 l-598 -600 820 -820 820 -820
-817 -817 -818 -818 -822 822 -823 823 -828 -828 -827 -827 -818 817 -817 818
2473 2472 2472 2473 817 -817 818 -818 -228 -230z"/>
<path d="M2465 15790 l-870 -870 825 -825 825 -825 -803 -802 -802 -803 -808
808 c-444 444 -813 807 -820 807 -7 0 -12 -14 -12 -37 0 -37 25 -63 802 -840
l803 -803 -803 -803 -802 -802 0 -80 0 -80 782 -782 783 -783 -783 -783 -782
-782 0 -90 0 -90 797 -797 798 -798 -798 -798 -797 -797 0 -50 0 -50 3320
3320 3320 3320 805 -805 805 -805 -3397 -3398 -3397 -3398 -728 728 -728 728
0 -50 0 -50 702 -702 703 -703 -703 -703 c-386 -386 -702 -705 -702 -710 0 -4
19 -7 42 -7 l43 0 1610 1610 1610 1610 818 -818 818 -818 -773 -735 c-425
-405 -800 -761 -833 -792 l-60 -57 51 2 52 3 863 822 c587 558 1111 1068 1634
1592 l770 771 822 -822 823 -823 843 843 842 842 818 -818 817 -817 -797 -798
-798 -797 45 0 45 0 800 800 800 800 -825 825 -825 825 803 802 802 803 825
-825 825 -825 873 873 872 872 -5855 5855 c-3220 3220 -5857 5855 -5860 5855
-3 0 -397 -391 -875 -870z m6688 -5038 l5807 -5807 -823 -823 -822 -822 -830
830 c-456 457 -834 830 -840 830 -5 0 -377 -370 -826 -822 l-817 -823 -809
807 -808 808 825 825 825 825 -2535 2535 c-1394 1394 -2539 2535 -2545 2535
-5 0 -379 -369 -830 -820 l-820 -820 -798 798 -797 797 825 825 825 825 -832
832 -833 833 820 820 c451 451 822 820 825 820 3 0 2618 -2613 5813 -5808z
m-5838 -852 c6 0 380 370 832 822 l823 823 810 -810 810 -810 -2472 -2472
-2473 -2473 -817 817 -818 818 827 827 828 828 -823 823 -822 822 817 817 818
818 825 -825 c454 -454 830 -825 835 -825z m5805 -2505 l815 -815 -823 -823
c-452 -452 -822 -827 -822 -832 0 -5 368 -378 817 -827 l818 -818 -818 -817
-817 -818 -819 819 -819 819 -828 -821 c-455 -452 -830 -822 -833 -822 -3 0
-373 367 -821 815 l-815 815 2470 2470 c1358 1359 2472 2470 2475 2470 3 0
372 -367 820 -815z"/>
<path d="M17985 4697 c-1100 -1096 -2612 -2601 -3360 -3345 l-1360 -1353 51 3
50 3 3315 3298 3314 3299 3 44 c2 24 -1 44 -5 44 -4 -1 -908 -897 -2008 -1993z"/>
<path d="M18298 1647 c-1306 -1270 -1664 -1624 -1656 -1635 6 -7 23 -12 38
-10 19 2 440 406 1671 1602 1488 1447 1644 1602 1644 1630 0 20 -5 31 -15 33
-8 1 -765 -728 -1682 -1620z"/>
</g>
</svg>
